<svg width="48" height="48" viewBox="0 0 48 48" fill="none" xmlns="http://www.w3.org/2000/svg">
  <!-- Background circle -->
  <circle cx="24" cy="24" r="23" fill="url(#gradient)" stroke="#2563eb" stroke-width="2"/>
  
  <!-- Trace network nodes -->
  <circle cx="12" cy="16" r="3" fill="#60a5fa" stroke="#1d4ed8" stroke-width="1"/>
  <circle cx="36" cy="16" r="3" fill="#60a5fa" stroke="#1d4ed8" stroke-width="1"/>
  <circle cx="24" cy="32" r="3" fill="#60a5fa" stroke="#1d4ed8" stroke-width="1"/>
  <circle cx="24" cy="12" r="2.5" fill="#34d399" stroke="#059669" stroke-width="1"/>
  
  <!-- Trace flow lines -->
  <path d="M15 16 L21 16" stroke="#3b82f6" stroke-width="2" stroke-linecap="round"/>
  <path d="M27 16 L33 16" stroke="#3b82f6" stroke-width="2" stroke-linecap="round"/>
  <path d="M24 15 L24 18" stroke="#10b981" stroke-width="2" stroke-linecap="round"/>
  <path d="M15 19 L21 29" stroke="#3b82f6" stroke-width="2" stroke-linecap="round"/>
  <path d="M33 19 L27 29" stroke="#3b82f6" stroke-width="2" stroke-linecap="round"/>
  
  <!-- Data flow indicators -->
  <circle cx="18" cy="16" r="1" fill="#fbbf24" opacity="0.8">
    <animate attributeName="r" values="1;2;1" dur="2s" repeatCount="indefinite"/>
    <animate attributeName="opacity" values="0.8;0.3;0.8" dur="2s" repeatCount="indefinite"/>
  </circle>
  <circle cx="30" cy="16" r="1" fill="#fbbf24" opacity="0.6">
    <animate attributeName="r" values="1;2;1" dur="2s" begin="0.5s" repeatCount="indefinite"/>
    <animate attributeName="opacity" values="0.6;0.2;0.6" dur="2s" begin="0.5s" repeatCount="indefinite"/>
  </circle>
  <circle cx="24" cy="25" r="1" fill="#fbbf24" opacity="0.7">
    <animate attributeName="r" values="1;2;1" dur="2s" begin="1s" repeatCount="indefinite"/>
    <animate attributeName="opacity" values="0.7;0.2;0.7" dur="2s" begin="1s" repeatCount="indefinite"/>
  </circle>
  
  <!-- Header representation -->
  <rect x="8" y="38" width="32" height="2" rx="1" fill="#6366f1" opacity="0.7"/>
  <rect x="10" y="41" width="28" height="1.5" rx="0.75" fill="#8b5cf6" opacity="0.5"/>
  
  <!-- Gradients -->
  <defs>
    <linearGradient id="gradient" x1="0%" y1="0%" x2="100%" y2="100%">
      <stop offset="0%" style="stop-color:#f0f9ff;stop-opacity:1" />
      <stop offset="100%" style="stop-color:#e0f2fe;stop-opacity:1" />
    </linearGradient>
  </defs>
</svg>